/* XPM */
static char *_10fff5af8e9482af56f25b4be18abafYrEy4oGCoHKMKHhj[] = {
/* columns rows colors chars-per-pixel */
"64 64 4 1 ",
"  c None",
". c black",
"X c #ED1C24",
"o c #FFF200",
/* pixels */
"                     ............                               ",
"                    .....oo.......                              ",
"                   ...oooooooooo.....                           ",
"                  ...oooooooooooooo...                          ",
"                 ...oooooooooooooooo...                         ",
"                 ..ooooXXooooooXXoooo...                        ",
"                 ..ooooXXooooooXXooooo..                        ",
"                 ..ooooooooooooooooooo..                        ",
"                 ..ooooooooooooooooooo..                        ",
"                 ..oooooXoooooooXooooo..                        ",
"                 ...ooooXXooooXXXooooo..                        ",
"                  ...ooooXXXoXXooooooo..                        ",
"                   ..ooooooXXXoooooooo..                        ",
"                    ...ooooooooooooooo..                        ",
"                     ..................                         ",
"                      ...............                           ",
"                            ..                                  ",
"                            ..                                  ",
"                            ..                                  ",
"                            ..                                  ",
"                            ..                                  ",
"                            ..                                  ",
"                            ..                                  ",
"                            ..                                  ",
"                            ..                                  ",
"                        .........                               ",
"                      ............                              ",
"                     ...    ..  ...                             ",
"                   ....     ..   ....                           ",
"                  ....      ..     ...                          ",
"                 ...        ..      ....                        ",
"                ...         ..        ...                       ",
"               ...          ..         ...                      ",
"              ...           ..           ..                     ",
"              ...           ..            ...                   ",
"             ...            ..             ....                 ",
"             ..             ..              ....                ",
"                            ..               ....               ",
"                            ..                 ..               ",
"                          ......                                ",
"                         ...  ...                               ",
"                        ...    ...                              ",
"                        ..      ..                              ",
"                       ..        ..                             ",
"                      ...        ...                            ",
"                      ..          ..                            ",
"                     ..            ..                           ",
"                    ..             ..                           ",
"                    ..              ..                          ",
"                   ..               ..                          ",
"                   ..               ..                          ",
"                  ..                 ..                         ",
"                  ..                 ..                         ",
"                  ..                 ..                         ",
"                 ...                  ..                        ",
"                 ..                   ..                        ",
"            .......                   ...                       ",
"           ...........              .........                   ",
"          ....XXX......            ...XX.......                 ",
"         ...XXXXXXXXX...           ...XXXXX.....                ",
"        ...XXXXXXXXXXX..           ..XXXXXXXXX...               ",
"        ..XXXXXXXXXXXX..           ..XXXXXXXXXX..               ",
"        ...XXXXXXXXXXX..           ..XXXXXXXXXX..               ",
"         ...............           ..............               "
};
