/* XPM */
static char *_cca376be5244b4fd4aaf6367e3b83fcZYAAcfjDm6JPBMa2[] = {
/* columns rows colors chars-per-pixel */
"64 64 4 1 ",
"  c None",
". c black",
"X c #ED1C24",
"o c #FFF200",
/* pixels */
"                     ............                               ",
"                    .....oo.......                              ",
"                   ...oooooooooo.....                           ",
"                  ...ooo.oooooo.ooo...                          ",
"                 ...ooooo.oooo.ooooo...                         ",
"                 ..ooooXXo.oo.oXXoooo...                        ",
"                 ..ooooXXooooooXXooooo..                        ",
"                 ..ooooooooooooooooooo..                        ",
"                 ..ooooooooooooooooooo..                        ",
"                 ..oooooXoooooooXooooo..       ..               ",
"                 ...ooooXXooooXXXooooo..       ..               ",
"                  ...ooooXXXoXXooooooo..      ..                ",
"       ..          ..ooooooXXXoooooooo..     ...                ",
"       ...          ...ooooooooooooooo..    ...                 ",
"        ...          ..................    ....                 ",
"          ..          ...............      ..                   ",
"          ...               ..            ..                    ",
"           ...              ..           ..                     ",
"            ...             ..          ...                     ",
"              ...           ..          ..                      ",
"                ...         ..        ..                        ",
"                 ...        ..       ..                         ",
"                   ...      ..      ..                          ",
"                    ....    ..     ..                           ",
"                      ...   ..   ...                            ",
"                       ............                             ",
"                         ........                               ",
"                            ..                                  ",
"                            ..                                  ",
"                            ..                                  ",
"                            ..                                  ",
"                            ..                                  ",
"                            ..                                  ",
"                            ..                                  ",
"                            ..                                  ",
"                            ..                                  ",
"                            ..                                  ",
"                            ..                                  ",
"                            ..                                  ",
"                          ......                                ",
"                         ...  ...                               ",
"                        ...    ...                              ",
"                        ..      ..                              ",
"                       ..        ..                             ",
"                      ...        ...                            ",
"                      ..          ..                            ",
"                     ..            ..                           ",
"                    ..             ..                           ",
"                    ..              ..                          ",
"                   ..               ..                          ",
"                   ..               ..                          ",
"                  ..                 ..                         ",
"                  ..                 ..                         ",
"                  ..                 ..                         ",
"                 ...                  ..                        ",
"                 ..                   ..                        ",
"            .......                   ...                       ",
"           ...........              .........                   ",
"          ....XXX......            ...XX.......                 ",
"         ...XXXXXXXXX...           ...XXXXX.....                ",
"        ...XXXXXXXXXXX..           ..XXXXXXXXX...               ",
"        ..XXXXXXXXXXXX..           ..XXXXXXXXXX..               ",
"        ...XXXXXXXXXXX..           ..XXXXXXXXXX..               ",
"         ...............           ..............               "
};
