/* XPM */
static char *cdfcd7d1287d4b2ffa2493f6adf6a977Bu673UPjpoJ84npW[] = {
/* columns rows colors chars-per-pixel */
"64 64 12 1 ",
"  c None",
". c #464646",
"X c gray28",
"o c gray30",
"O c #5B5B5B",
"+ c #626262",
"@ c #767676",
"# c #848484",
"$ c #989898",
"% c #9F9F9F",
"& c gray68",
"* c #B4B4B4",
/* pixels */
"        XX......X.....XX..........XX..........XX.......X        ",
"        XX......XX....XX.....X....XX.....X....XX.......X        ",
"        XXX.XX..XXXX.XXXXX..XXXX.XXXXX..XXXX.XXXXX.....X        ",
"        XX.oO++O++++O++++++O++++O++++++O++++O+++++OOo..X        ",
"        X.XO#$$$$$$$$$$$$$$$$$$$$$$$$$$$$$$$$$$$$$$#OX.X        ",
"        XXX+$**************************************$+X.X        ",
"        X.X+$**************************************$+XXX        ",
"        X.X+$**************************************$+X.X        ",
"        X.X+$**************************************$O.XX        ",
"        X.X+$**************************************$+.XX        ",
"        X..+$**************************************$+XXX        ",
"        X..O$**************************************$+XXX        ",
"        X.X+$**************************************$+XXX        ",
"        XXX+$**************************************$OXXX        ",
"        X.X+$**************************************$+XXX        ",
"        X.X+$**************************************$+XXX        ",
"        XXX+$**************************************$+XXX        ",
"        XX.O$**************************************$+XXX        ",
"        XXX+$**************************************$+X.X        ",
"        XXX+$**************************************$O..X        ",
"        X..+$**************************************$+X.X        ",
"        XX.O$**************************************$+X.X        ",
"        XXX+$**************************************$+XXX        ",
"        XXX+$**************************************$+X.X        ",
"        XXX+$**************************************$O.XX        ",
"        XXX+$**************************************$+.XX        ",
"        XXXO$**************************************$+XXX        ",
"        XXX+$**************************************$+XXX        ",
"        XXX+$**************************************$+XXX        ",
"        XXX+$**************************************$OXXX        ",
"        XX.+$**************************************$+XXX        ",
"        XX.O$****************************&%$$%&****$+XXX        ",
"        XXX+$****************************%@++@%****$+XXX        ",
"        XXX+$****************************$+XX+$****$+XXX        ",
"        XXX+$****************************$+XX+$****$+XXX        ",
"        X.X+$****************************%@++@%****$O..X        ",
"        X..O$****************************&%$$%&****$+XXX        ",
"        X.X+$**************************************$O.XX        ",
"        XXX+$**************************************$+XXX        ",
"        XXX+$**************************************$+XXX        ",
"        XXX+$**************************************$O.XX        ",
"        XX.O$**************************************$+.XX        ",
"        XXX+$**************************************$+XXX        ",
"        XXX+$**************************************$+XXX        ",
"        X..+$**************************************$+XXX        ",
"        XX.O$**************************************$OXXX        ",
"        XXX+$**************************************$+XXX        ",
"        XXX+$**************************************$+XXX        ",
"        XXX+$**************************************$+XXX        ",
"        XXX+$**************************************$+XXX        ",
"        XXX+$**************************************$+X.X        ",
"        XX.O$**************************************$O..X        ",
"        X.X+$**************************************$+X.X        ",
"        XXX+$**************************************$+X.X        ",
"        X.X+$**************************************$+XXX        ",
"        X.X+$**************************************$+X.X        ",
"        X.X+$**************************************$O..X        ",
"        X.X+$**************************************$+..X        ",
"        X..O$**************************************$+X.X        ",
"        X..O#$$$$$$$$$$$$$$$$$$$$$$$$$$$$$$$$$$$$$$#OX.X        ",
"        X..oO+++O++++++O++++O++++++O++++O++++++O+++Oo..X        ",
"        X...XXXX..XXXXX.XXXX..XXXXX.XXXX..XXXXX.XXXX...X        ",
"        X.....X.....XX....X.....XX....X.....XX....X.X.XX        ",
"        X...........XX..........XX..........XX......XXXX        "
};
