/* XPM */
static char *_addca39df3447c7dfb4d4f563e75557QHtsZemQmU18mkFV[] = {
/* columns rows colors chars-per-pixel */
"64 64 15 1 ",
"  c None",
". c #464646",
"X c gray28",
"o c gray30",
"O c #5B5B5B",
"+ c #626262",
"@ c #767676",
"# c #A68171",
"$ c #848484",
"% c #989898",
"& c #9F9F9F",
"* c #AFA39D",
"= c gray68",
"- c #B2AEAC",
"; c #B4B4B4",
/* pixels */
"                                                                ",
"                                                                ",
"                                                                ",
"                                                                ",
"                                                                ",
"                                                                ",
"                                                    .XXXX.      ",
"                                                    .oOOoX      ",
"                                          .X....  ...O$$OX      ",
"                                          XoOOXX  .oO@=%+X      ",
"                                          XO$$O....O@==%+X      ",
"                                          X+%&@O+OoO%=;%+X      ",
"                                          X+%==%%$O+%;;%+X      ",
"                                          XO$%%%%$OO$%%$O.      ",
"XXXX..                                    XoO++++OooO++Oo..XX.  ",
"XXX...                                    .....oO++++++++++OoX  ",
"    ....                                    ...O$%%%%%%%%%%$O.  ",
"    ...X                                    .XO@==;;;;;-**-%+.  ",
"      .X                                  ...O$&=;;;;;;*##*%+X  ",
"      X.                                  .oO@&;;;;;;;;*##*%+.  ",
"      X...                                XO$&=;;;;;;;;=**-%+X  ",
"      ....                                .+%;;;;;;;;;;;;;;%+X  ",
"        ....    .XXXXXXXXXXXXXXXXXXXXXXXX..+%;;=;;;;;;;;;;=%+X  ",
"        ....    .oO++++++++++++O+++++++++OoO$%%==;;;;;;;;==$OX  ",
"          ...XX..O$%%%%%%%%%%%%%%%%%%%%%%$OoO++@=;;;;;;;;&@Oo.  ",
"          .XX..oO@=;;;;;;;;;;;;;;;;;;;;;;&@O+OoO@%%%%%%%%$O...  ",
"              .O$&==;;;;;;;;;;;;;;;;;;;;;=&%%@OoO++++++++Oo.    ",
"              X+%;;;;;;;;;;;;;;;;;;;;;;;;;;;;=@++Oo.........    ",
"              X+%;;;;;;;;;;;;;;;;;;;;;;;;;;;;==%%$O...          ",
"              X+%;;;;;;;;;;;;;;;;;;;;;;;;;;;;;=;;%+...          ",
"              X+%;;;;;;;;;;;;;;;;;;;;;;;;;;;;;;;;%+.            ",
"              X+%;;;;;;;;;;;;;;;;;;;;;;;;;;;;;;;;%+X            ",
"              X+%;;;;;;;;;;;;;;;;;;;;;;;;;;;;;;;;%OX            ",
"              XO$&=;;;;;;;;;;;;;;;;;;;;;;;;;;;;=&$OX            ",
"              XoO@&;;;;;;;;;;;;;;;;;;;;;;;;;;;;&@OoX            ",
"              ...O%;;;;;;;;;;;;;;;;;;;;;;;;;;;;%+...            ",
"                .+%;;;;=;;;;;;;;;;;;;;;;;;;;;=;%+.              ",
"                XO$%%%%==;;;;;;;;;;;;;;;;;;;;==$OX              ",
"                XoO++++@=;;;;;;;;;;;;;;;;;;;;&@OoX              ",
"                .XXXX..O@%%%%%%%%%%%%%%%%%%%%$O...              ",
"                      .oO++++++++++++++++++++Oo.                ",
"                      .......XXXXXXXXXX....XXXX.                ",
"                        ....            ..                      ",
"                        ....            .X                      ",
"                      ....            ...X                      ",
"                      X...            X...                      ",
"                      X.              X.                        ",
"                      XX              XX                        ",
"                      XX              XX                        ",
"                      X.              X.                        ",
"                      X...            X...                      ",
"                      .XX.            .XX.                      ",
"                                                                ",
"                                                                ",
"                                                                ",
"                                                                ",
"                                                                ",
"                                                                ",
"                                                                ",
"                                                                ",
"                                                                ",
"                                                                ",
"                                                                ",
"                                                                "
};
