/* XPM */
static char *_4f57e81ca6c4e9cb54f9e049baef0adzt9EiJqluYjS9Cwb[] = {
/* columns rows colors chars-per-pixel */
"64 64 7 1 ",
"  c None",
". c black",
"X c #990030",
"o c #E5AA7A",
"O c #00B7EF",
"+ c #FFA3B1",
"@ c white",
/* pixels */
"                                                                ",
"                                                                ",
"                                                                ",
"                                                                ",
"                                                                ",
"                                                                ",
"              ...                             ...               ",
"             ....                            .....              ",
"           ....@...                         ...o....            ",
"          ....@@@..                        ...oooo...           ",
"          ...@@@@@..                       ..oooooo...          ",
"         ...@@@@@@@..                     ..oooooooo...         ",
"        ...@@@@@@@@@..                  ...oooooooooo..         ",
"        ...@@@@@@@@@...                 ...oooooooooo...        ",
"       ...@@@@@@@@@@@..                ...oooooooooooo..        ",
"      ...@@@@@@@@@@@@...               ...ooooooooooooo..       ",
"      ...@@@@@@@@@@@@@..              ...oooooooooooooo...      ",
"     ...@@@@@@@@@@@@@@@..             ...ooooooooooooooo..      ",
"    ...@@@@@@@@@@@@@@@@..             ..ooooooooooooooooo..     ",
"   ...@@@@@@@@@@@@@@@@@....         ....oooooooooooooooooo..    ",
"   ...@@@@@@@@@@@@@@@@@@...............ooooooooooooooooooo...   ",
"   ..@@@@@@@@@@@@@@@@@@@@@@.........ooooooooooooooooooooooo..   ",
"   ..@@@@@@@@@@@@@@@@@@@@@@@@@@@@oooooooooooooooooooooooooo..   ",
"   ..@@@@@@@@@@@@@@@@@@@@@@@@@@@@@oooooooooooooooooooooooooo..  ",
"  ..@@@@@@@@@@@@@@@@@@@@@@@@@@@@@@@ooooooooooooooooooooooooo..  ",
"  ..@@@@@@@@@@@@@@@@@@@@@@@@@@@@@@@ooooooooooooooooooooooooo..  ",
"  ..@@@@@@@@@@@@@@........@@@@@@@@@@o........ooooooooooooooo..  ",
"  ..@@@@@@@@@@@@@..........@@@@@@@@@..........oooooooooooooo..  ",
"  ..@@@@@@@@@@@@..OOOOOOOO..@@@@@@@..OOOOOOOO..ooooooooooooo..  ",
"  ..@@@@@@@@@@@@..OOOOOOOO..@@@@@@@..OOOOOOOO..ooooooooooooo..  ",
"  ..@@@@@@@@@@@@..OOOOOXXX..@@@@@@@..OOOOOXXX..ooooooooooooo..  ",
"  ..@@@@@@@@@@@@..OOOOOXXX..@@@@@@@..OOOOOXXX..ooooooooooooo..  ",
"  ..@@@@@@@@@@@@..OOOOOXXX..@@@@@@@..OOOOOXXX..ooooooooooooo..  ",
"  ..@@@@@@@@@@@@..OOOOOOOO..@@@@@@@..OOOOOOOO..ooooooooooooo..  ",
"  ...@@@@@@@@@@@..OOOOOOOO..@@@@@@@..OOOOOOOO..oooooooooooo...  ",
"   ..@@@@@@@@@@@@..........@@@@@@@@@..........ooooooooooooo..   ",
"   ..@@@@@@@@@@@@@........@@@@@@@@@@@........oooooooooooooo..   ",
"   ...@@@@@@@@@@@@@@@@@@@@@@@@@@@@@@@@@@@@@ooooooooooooooo..    ",
"    ..@@@@@@@@@@@@@@@@@@@@@@@@@@@@@@@@@@@@@@oooooooooooooo..    ",
"    ..@@@@@@@@@@@@@@@@@@@@@@@@@@@@@@@@@@@@@@@ooooooooooooo..    ",
"    ..@@@@@@@@@@@@@@@@@@@@@@@@@@@@@@@@@@@@@@@@oooooooooooo..    ",
"    ...@@@@@@@@@@@@@@@@@@@@@@@@@@@@@@@@@@@@@@@ooooooooooo...    ",
"     ..@@@@@@@@@@@@@@@@@@@@@@@@@@@@@@@@@@@@@@@@oooooooooo..     ",
"     ...@@@@@@@@@@@@@@@@@@@@@@@@@@@@@@@@@@@@@@@@oooooooo...     ",
"     ...@@@@@@@.....@@@@@@@@@@@@@@@@@@@@@@@.....@ooooooo..      ",
"      ..@@@@@@@.........@@@@@@@@@@@@@@..........@@oooooo..      ",
"      ..@@@@@@@..+++..........@@@..........+++..@@@oooo..       ",
"      ...@@@@@@..+++++++...............+++++++..@@@ooo...       ",
"       ...@@@@@..+++++++++++++...+++++++++++++..@@@@o...        ",
"        ...@@@@...+++++++++++++++++++++++++++...@@@@@..         ",
"         ...@@@@...+++++++++++++++++++++++++...@@@@@...         ",
"          ...@@@@...+++++++++++++++++++++++...@@@@@...          ",
"           ...@@@@...+++++++++++++++++++++...@@@@@...           ",
"            ...@@@@......+++++++++++++......@@@@@...            ",
"             ...@@@@.......................@@@@@...             ",
"              ...@@@@@@................@@@@@@@@...              ",
"               ...@@@@@@@@@@@@@@@@@@@@@@@@@@@@...               ",
"                ...@@@@@@@@@@@@@@@@@@@@@@@@@@...                ",
"                 ...@@@@@@@@@@@@@@@@@@@@@@@@...                 ",
"                  ...@@@@@@@@@@@@@@@@@@@@@....                  ",
"                   ....@@@@@@@@@@@@@@@@@.....                   ",
"                    .......................                     ",
"                       ..................                       ",
"                                                                "
};
