/* XPM */
static char *bb088d08bec4432be0d6da9e4e891644y1gFsd2YsbTG3K2o[] = {
/* columns rows colors chars-per-pixel */
"64 64 44 1 ",
"  c None",
". c #824C00",
"X c #834C00",
"o c #824D00",
"O c #885001",
"+ c #8A5600",
"@ c #935704",
"# c #985B05",
"$ c #9A6204",
"% c #996B00",
"& c #9F6F01",
"* c #A96709",
"= c #B46E0C",
"- c #A17600",
"; c #A06517",
": c #B0783B",
"> c #C57A10",
", c #CA7E11",
"< c #9D7D76",
"1 c #B99500",
"2 c #CB8D0C",
"3 c #D58514",
"4 c #DB8915",
"5 c #DD9014",
"6 c #E29D11",
"7 c #C8A900",
"8 c #D9B504",
"9 c #E4A310",
"0 c #D28723",
"q c #D78E22",
"w c #C0843F",
"e c #CF983D",
"r c #E0C800",
"t c #EFC409",
"y c #E8D300",
"u c #F6D805",
"i c #F7E800",
"p c #B7824D",
"a c #7174BB",
"s c #6872C9",
"d c #566FE5",
"f c #867591",
"g c #8B7992",
"h c #B6B68D",
/* pixels */
"                                                                ",
"                                                                ",
"                                                                ",
"                                                                ",
"                                                                ",
"                                                                ",
"                                                XXXXXo  oXXXXo  ",
"                                                XO@@OX  XO@@OX  ",
"                                              XX.+==@X  X@==#XXX",
"                                              XO@*3>#X  X#=3*@OX",
"                                              X@=,3>#X  X#>33=@X",
"                                              X@=>>=@X  X@=>==@X",
"                                              XO@##@OXXXXO@#$@OX",
"                                              XX.X@##########@OX",
"                                                X@=>>>>>>>>>>=@X",
"                                                X#>4444444444>#X",
"                                                X#>4444444444>#X",
"                                                X#>qeeq44qeeq>#X",
"XXXXXXXX                                        X#>ehhe44ehhe>#X",
"XXXXXXXX                                        X#>ehhe44ehhe>#X",
"XXXXXoo.XXXX                                    X#>qeeq44qeeq>#X",
"XXXXXX..oXo.                                    X#>0ww0443ww0>#X",
"        XXXX                                    X#>wggw44wggp>#X",
"        XXXX                                    X#>pas<pppsap>#X",
"        XXXX                                    X#>padsasddap>#X",
"        XXXX                                    X@=:faaaaaagw>#X",
"        ..XoXX        XXXXXXXXXXXXXXXXXXXXXXXXXXXO@;:ppppppw0>#X",
"        X...XX        XO@######################$&%+@=>>>>>>>>=@X",
"          XXXX.X  XXXXX@=>>>>>>>>>>>>>>>>>>>>>>287%O@########@OX",
"          XXoX..  XO@##*,44444444444444444444449uy1--------%+XXX",
"            Xo..XXX@=>>,344444444444444444444449uiyrrrrrrrr7%X  ",
"            oX..XO@*,444444444444444444444444449tuuuuuuuuuu8&X  ",
"              XX.@=,3444444444444444444444444445699999999992$X  ",
"              XO@*,4444444444444444444444444444444444444444>#X  ",
"              X@=,34444444444444444444444444444444444444444>#X  ",
"              X#>44444444444444444444444444444444444444443,=@X  ",
"              X#>4444444444444444444444444444444444444444,*@OX  ",
"              X#>4444444444444444444444444444444444444444>#XXX  ",
"              X#>4444444444444444444444444444444444444444>#X    ",
"              X@=,344444444444444444444444444444444444444>#X    ",
"              XO@*,44444444444444444444444444444444444444>#X    ",
"              XX.#>44444444444444444444444444444444444444>#X    ",
"              XX.#>44444444444444444444444444444444444444>#X    ",
"              XX.@=,3444444444444444444444444444444444444>#X    ",
"                XX@*,444444444444444444444444444444444444>#X    ",
"                X.o@=,3444444444444444444444444444444443,=@X    ",
"                  XO@*,44444444444444444444444444444444,*@OX    ",
"                  X..@=>>,34444444444444444444444444444>#XXX    ",
"                    XO@##*,4444444444444444444444444444>#X      ",
"                    XXXXX@=>>,344444444444444444444443,=@X      ",
"                        XO@##*,4444444444444444444444,*@OX      ",
"                        XXXXo@=>>>>>>>>>>>>>>>>>>>>>>=@XXX      ",
"                            XO@######################@OX        ",
"                            XXooXXXXXXXXXXXXXXXXXXXXXXXX        ",
"                            XXXX              XoXX              ",
"                            XXXX              XXoX              ",
"                            ....              XXXX              ",
"                            ....              XXXX              ",
"                            ..XoXX            XXXXXX            ",
"                            X.XXXX            XXoXXX            ",
"                              XXXX              XooX            ",
"                              XXXX              XooX            ",
"                              .oXXXX            ..o.XX          ",
"                              .ooXXX            ....XX          "
};
