/* XPM */
static char *result[] = {
/* columns rows colors chars-per-pixel */
"64 64 7 1 ",
"  c #824C00",
". c #8A4F00",
"X c #995500",
"o c #A15900",
"O c #C86800",
"+ c #E07200",
"@ c #FF7E00",
/* pixels */
"                                                                ",
" .XooooooooooX..XooooooooooooooooooooooooooooooX..XooooooooooX. ",
" XO++++++++++OXXO++++++++++++++++++++++++++++++OXXO++++++++++OX ",
" o+@@@@@@@@@@+oo+@@@@@@@@@@@@@@@@@@@@@@@@@@@@@@+oo+@@@@@@@@@@+o ",
" o+@@@@@@@@@@+oo+@@@@@@@@@@@@@@@@@@@@@@@@@@@@@@+oo+@@@@@@@@@@+o ",
" o+@@@@@@@@@@+oo+@@@@@@@@@@@@@@@@@@@@@@@@@@@@@@+oo+@@@@@@@@@@+o ",
" o+@@@@@@@@@@+oo+@@@@@@@@@@@@@@@@@@@@@@@@@@@@@@+oo+@@@@@@@@@@+o ",
" o+@@@@@@@@@@+oo+@@@@@@@@@@@@@@@@@@@@@@@@@@@@@@+oo+@@@@@@@@@@+o ",
" o+@@@@@@@@@@+oo+@@@@@@@@@@@@@@@@@@@@@@@@@@@@@@+oo+@@@@@@@@@@+o ",
" o+@@@@@@@@@@+oo+@@@@@@@@@@@@@@@@@@@@@@@@@@@@@@+oo+@@@@@@@@@@+o ",
" o+@@@@@@@@@@+oo+@@@@@@@@@@@@@@@@@@@@@@@@@@@@@@+oo+@@@@@@@@@@+o ",
" o+@@@@@@@@@@+oo+@@@@@@@@@@@@@@@@@@@@@@@@@@@@@@+oo+@@@@@@@@@@+o ",
" o+@@@@@@@@@@+oo+@@@@@@@@@@@@@@@@@@@@@@@@@@@@@@+oo+@@@@@@@@@@+o ",
" o+@@@@@@@@@@+oo+@@@@@@@@@@@@@@@@@@@@@@@@@@@@@@+oo+@@@@@@@@@@+o ",
" o+@@@@@@@@@@+oo+@@@@@@@@@@@@@@@@@@@@@@@@@@@@@@+oo+@@@@@@@@@@+o ",
" o+@@@@@@@@@@+oo+@@@@@@@@@@@@@@@@@@@@@@@@@@@@@@+oo+@@@@@@@@@@+o ",
" o+@@@@@@@@@@+oo+@@@@@@@@@@@@@@@@@@@@@@@@@@@@@@+oo+@@@@@@@@@@+o ",
" o+@@@@@@@@@@+oo+@@@@@@@@@@@@@@@@@@@@@@@@@@@@@@+oo+@@@@@@@@@@+o ",
" o+@@@@@@@@@@+oo+@@@@@@@@@@@@@@@@@@@@@@@@@@@@@@+oo+@@@@@@@@@@+o ",
" o+@@@@@@@@@@+oo+@@@@@@@@@@@@@@@@@@@@@@@@@@@@@@+oo+@@@@@@@@@@+o ",
" o+@@@@@@@@@@+oo+@@@@@@@@@@@@@@@@@@@@@@@@@@@@@@+oo+@@@@@@@@@@+o ",
" XO++++++++++OXXO++++++++++++++++++++++++++++++OXXO++++++++++OX ",
" .XooooooooooX..XooooooooooooooooooooooooooooooX..XooooooooooX. ",
" .XooooooooooooooooooooooX..XooooooooooooooooooooooooooooooooX. ",
" XO++++++++++++++++++++++OXXO++++++++++++++++++++++++++++++++OX ",
" o+@@@@@@@@@@@@@@@@@@@@@@+oo+@@@@@@@@@@@@@@@@@@@@@@@@@@@@@@@@+o ",
" o+@@@@@@@@@@@@@@@@@@@@@@+oo+@@@@@@@@@@@@@@@@@@@@@@@@@@@@@@@@+o ",
" o+@@@@@@@@@@@@@@@@@@@@@@+oo+@@@@@@@@@@@@@@@@@@@@@@@@@@@@@@@@+o ",
" o+@@@@@@@@@@@@@@@@@@@@@@+oo+@@@@@@@@@@@@@@@@@@@@@@@@@@@@@@@@+o ",
" o+@@@@@@@@@@@@@@@@@@@@@@+oo+@@@@@@@@@@@@@@@@@@@@@@@@@@@@@@@@+o ",
" o+@@@@@@@@@@@@@@@@@@@@@@+oo+@@@@@@@@@@@@@@@@@@@@@@@@@@@@@@@@+o ",
" o+@@@@@@@@@@@@@@@@@@@@@@+oo+@@@@@@@@@@@@@@@@@@@@@@@@@@@@@@@@+o ",
" o+@@@@@@@@@@@@@@@@@@@@@@+oo+@@@@@@@@@@@@@@@@@@@@@@@@@@@@@@@@+o ",
" o+@@@@@@@@@@@@@@@@@@@@@@+oo+@@@@@@@@@@@@@@@@@@@@@@@@@@@@@@@@+o ",
" o+@@@@@@@@@@@@@@@@@@@@@@+oo+@@@@@@@@@@@@@@@@@@@@@@@@@@@@@@@@+o ",
" o+@@@@@@@@@@@@@@@@@@@@@@+oo+@@@@@@@@@@@@@@@@@@@@@@@@@@@@@@@@+o ",
" o+@@@@@@@@@@@@@@@@@@@@@@+oo+@@@@@@@@@@@@@@@@@@@@@@@@@@@@@@@@+o ",
" o+@@@@@@@@@@@@@@@@@@@@@@+oo+@@@@@@@@@@@@@@@@@@@@@@@@@@@@@@@@+o ",
" o+@@@@@@@@@@@@@@@@@@@@@@+oo+@@@@@@@@@@@@@@@@@@@@@@@@@@@@@@@@+o ",
" o+@@@@@@@@@@@@@@@@@@@@@@+oo+@@@@@@@@@@@@@@@@@@@@@@@@@@@@@@@@+o ",
" o+@@@@@@@@@@@@@@@@@@@@@@+oo+@@@@@@@@@@@@@@@@@@@@@@@@@@@@@@@@+o ",
" XO++++++++++++++++++++++OXXO++++++++++++++++++++++++++++++++OX ",
" .XooooooooooooooooooooooX..XooooooooooooooooooooooooooooooooX. ",
" .XooooooooooX..XooooooooooooooooooooooooooooooX..XooooooooooX. ",
" XO++++++++++OXXO++++++++++++++++++++++++++++++OXXO++++++++++OX ",
" o+@@@@@@@@@@+oo+@@@@@@@@@@@@@@@@@@@@@@@@@@@@@@+oo+@@@@@@@@@@+o ",
" o+@@@@@@@@@@+oo+@@@@@@@@@@@@@@@@@@@@@@@@@@@@@@+oo+@@@@@@@@@@+o ",
" o+@@@@@@@@@@+oo+@@@@@@@@@@@@@@@@@@@@@@@@@@@@@@+oo+@@@@@@@@@@+o ",
" o+@@@@@@@@@@+oo+@@@@@@@@@@@@@@@@@@@@@@@@@@@@@@+oo+@@@@@@@@@@+o ",
" o+@@@@@@@@@@+oo+@@@@@@@@@@@@@@@@@@@@@@@@@@@@@@+oo+@@@@@@@@@@+o ",
" o+@@@@@@@@@@+oo+@@@@@@@@@@@@@@@@@@@@@@@@@@@@@@+oo+@@@@@@@@@@+o ",
" o+@@@@@@@@@@+oo+@@@@@@@@@@@@@@@@@@@@@@@@@@@@@@+oo+@@@@@@@@@@+o ",
" o+@@@@@@@@@@+oo+@@@@@@@@@@@@@@@@@@@@@@@@@@@@@@+oo+@@@@@@@@@@+o ",
" o+@@@@@@@@@@+oo+@@@@@@@@@@@@@@@@@@@@@@@@@@@@@@+oo+@@@@@@@@@@+o ",
" o+@@@@@@@@@@+oo+@@@@@@@@@@@@@@@@@@@@@@@@@@@@@@+oo+@@@@@@@@@@+o ",
" o+@@@@@@@@@@+oo+@@@@@@@@@@@@@@@@@@@@@@@@@@@@@@+oo+@@@@@@@@@@+o ",
" o+@@@@@@@@@@+oo+@@@@@@@@@@@@@@@@@@@@@@@@@@@@@@+oo+@@@@@@@@@@+o ",
" o+@@@@@@@@@@+oo+@@@@@@@@@@@@@@@@@@@@@@@@@@@@@@+oo+@@@@@@@@@@+o ",
" o+@@@@@@@@@@+oo+@@@@@@@@@@@@@@@@@@@@@@@@@@@@@@+oo+@@@@@@@@@@+o ",
" o+@@@@@@@@@@+oo+@@@@@@@@@@@@@@@@@@@@@@@@@@@@@@+oo+@@@@@@@@@@+o ",
" o+@@@@@@@@@@+oo+@@@@@@@@@@@@@@@@@@@@@@@@@@@@@@+oo+@@@@@@@@@@+o ",
" XO++++++++++OXXO++++++++++++++++++++++++++++++OXXO++++++++++OX ",
" .XooooooooooX..XooooooooooooooooooooooooooooooX..XooooooooooX. ",
"                                                                "
};
